<?xml version="1.0" encoding="UTF-8"?>
<svg width="122px" height="24px" viewBox="0 0 122 24" version="1.1" xmlns="http://www.w3.org/2000/svg" xmlns:xlink="http://www.w3.org/1999/xlink">
    <!-- Generator: Sketch 52.2 (67145) - http://www.bohemiancoding.com/sketch -->
    <title>Logo</title>
    <desc>Created with Sketch.</desc>
    <g id="Organisms" stroke="none" stroke-width="1" fill="none" fill-rule="evenodd">
        <g id="_Organism-/-Topbars-/-Product-TopBar-/-1360+" transform="translate(-48.000000, -28.000000)" fill="#000A12" fill-rule="nonzero">
            <g id="Logo" transform="translate(48.000000, 28.000000)">
                <g id="Shape">
                    <path d="M33.535091,5.89397062 C31.0574512,5.81348765 28.8468559,7.4435216 28.1858443,9.8383625 C27.7390163,11.2871068 27.7390163,12.8373309 28.1858443,14.2860752 C28.6793502,16.3281501 30.3796376,17.8526304 32.4590931,18.1174767 C34.553251,18.5694831 36.7007222,17.625671 37.7878447,15.775494 C39.1215506,13.6787301 39.2387247,11.0282434 38.0952727,8.82144897 C37.3118242,6.9950201 35.4973129,5.83130979 33.5145958,5.88369877 L33.535091,5.89397062 Z M33.432615,23.9518897 C30.3182041,24.0506589 27.2847376,22.9476434 24.9578505,20.8703335 C22.450701,18.5741448 21.1040765,15.2712534 21.28921,11.8721896 C21.232491,9.04132449 22.2091189,6.28714418 24.0355666,4.12721176 C25.7195695,2.1633291 28.0163408,0.827614442 30.5530397,0.33689768 C33.6864742,-0.399551066 36.9819071,0.0812528155 39.7758789,1.68251054 C43.2142304,3.58356957 45.3613205,7.19670486 45.3915633,11.1326161 C45.7659352,14.6498035 44.5299157,18.1475568 42.0303508,20.6443528 C39.7277799,22.8536787 36.6394159,24.0483054 33.4531102,23.9621616 L33.432615,23.9518897 Z M113.415127,14.1422693 C112.380061,13.4563904 111.195607,13.0301049 109.961686,12.899375 C108.69637,12.6415039 107.380936,12.9163561 106.323788,13.6594921 C105.32438,14.4193743 104.913372,15.7294739 105.299028,16.9259417 C105.669812,17.9758068 106.629187,18.7031019 107.737957,18.7748754 C108.845794,18.8839725 109.963175,18.7108454 110.986446,18.2715545 C112.706424,17.7047063 113.737969,15.9447282 113.394632,14.162813 L113.415127,14.1422693 Z M113.517603,9.85890621 C113.566234,9.20583988 113.566234,8.55004845 113.517603,7.89698212 C113.327803,6.86827873 112.560465,6.04304088 111.550064,5.78098023 C108.175412,4.80035742 104.560665,5.07766954 101.374198,6.56164112 L100.523647,1.86740391 C101.842527,1.22336407 103.247282,0.77360894 104.69442,0.532062904 C107.69174,-0.0790279021 110.785424,-0.033476398 113.763545,0.665597004 C116.930053,1.46680161 119.143535,3.30546345 119.758391,6.67463151 C119.884143,7.53139507 119.935573,8.39747191 119.912105,9.26313869 L119.912105,17.7785055 C120.024828,19.5247207 120.178542,19.6993422 121.961624,19.9664104 L121.961624,23.5718311 C120.209988,24.1644479 118.304184,24.1061177 116.591882,23.4074815 C115.668753,22.9382994 115.036056,22.0427401 114.901029,21.0141395 C114.901029,20.8087024 114.849791,20.5929935 114.8088,20.2848379 C112.646557,23.366394 109.551782,24.1675986 106.149579,23.9724334 C102.38871,23.6437341 99.4169062,21.1065862 98.9250215,18.0763893 C98.0437279,13.1561713 100.523647,9.47884762 105.473237,8.73927414 C108.639745,8.2359533 109.500544,8.46193408 113.548345,9.84863436 L113.517603,9.85890621 Z M84.4451638,14.2449878 L80.9609801,14.4606967 L80.9609801,23.4177533 L74.4332594,23.4177533 L74.4332594,0.747771835 L80.8585041,0.747771835 L80.8585041,9.12960459 C82.270333,9.25760924 83.6935666,9.15000664 85.0702673,8.81117712 C86.7092177,8.32441823 87.9805831,7.02284667 88.4314799,5.37010607 C88.8516314,3.87041541 89.0565834,2.28854991 89.374259,0.696412565 L95.3178665,0.696412565 C95.4510853,5.37010607 94.5185538,9.48911947 90.0608482,12.0570829 C90.2350573,12.3857823 90.3785237,12.6733942 90.5322377,12.9404624 C92.366558,16.0220185 94.2008782,19.1035747 96.0249509,22.1337716 C96.2374186,22.5596553 96.4222591,22.9988328 96.5783212,23.4485689 L89.7124298,23.4485689 L84.4349162,14.2552597 L84.4451638,14.2449878 Z M62.9149579,0.716956273 L69.2684694,0.716956273 L69.2684694,23.4588407 L62.8534723,23.4588407 L62.8534723,16.1658245 C61.6749984,16.4328927 60.5887529,16.761592 59.4820122,16.905398 C56.6447415,17.4591209 53.7069255,16.7631525 51.4171516,14.9948331 C49.6806064,13.5102793 48.5318458,11.451463 48.1789103,9.19123571 C47.6255399,6.40756331 47.9637107,3.5828035 47.8714823,0.716956273 L54.501679,0.716956273 L54.501679,1.74414166 C54.501679,3.5828035 54.501679,5.4317372 54.5939074,7.26012718 C54.6259294,8.3745882 55.1007323,9.43005978 55.9127894,10.1919597 C56.7248466,10.9538597 57.8068765,11.3590621 58.9183942,11.3175095 C60.3471433,11.3637416 61.7514293,10.9378494 62.9149579,10.1054307 L62.9149579,0.716956273 Z M13.080883,23.366394 L6.70687635,23.366394 L6.70687635,6.5205537 L0.0151940845,6.5205537 L0.0151940845,0.737499981 L19.7008321,0.737499981 L19.7008321,6.45892258 L13.080883,6.45892258 L13.080883,23.366394 Z"></path>
                </g>
            </g>
        </g>
    </g>
</svg>